PathFileType  4	(X/Y/Z) C:\Users\antoi\Documents\MyRepositories\mobilecap\ResultsAnalysis
DataRate	CameraRate	NumFrames	NumMarkers	Units	OrigDataRate	OrigDataStartFrame	OrigNumFrames
100.0	100.0	6	51	mm	100.0	140	223
Frame#	Time	r_knee			r_shank_antsup			r_ankle			r_calc			r_5meta			r_toe			L_knee			L_shank_antsup			L_ankle			L_calc			L_5meta			L_toe			r_sh2			r_sh3			r_sh4			L_sh2			L_sh3			r_thigh1			r_thigh2			r_thigh3			r_thigh4			r_thigh5			L_thigh1			L_thigh2			L_thigh3			L_thigh4			r.ASIS			r.PSIS			L.ASIS			L.PSIS			C7			R_Shoulder			L_Shoulder			R_Sternum			L_Sternum			R_humerus			R_elbow_med			R_elbow_lat			R_forearm			R_wrist_radius			R_wrist_ulna			L_humerus			L_elbow_med			L_elbow_lat			L_forearm			L_wrist_radius			L_wrist_ulna			R_HJC			L_HJC			R_HJC_reg			L_HJC_reg			
		X1	Y1	Z1	X2	Y2	Z2	X3	Y3	Z3	X4	Y4	Z4	X5	Y5	Z5	X6	Y6	Z6	X7	Y7	Z7	X8	Y8	Z8	X9	Y9	Z9	X10	Y10	Z10	X11	Y11	Z11	X12	Y12	Z12	X13	Y13	Z13	X14	Y14	Z14	X15	Y15	Z15	X16	Y16	Z16	X17	Y17	Z17	X18	Y18	Z18	X19	Y19	Z19	X20	Y20	Z20	X21	Y21	Z21	X22	Y22	Z22	X23	Y23	Z23	X24	Y24	Z24	X25	Y25	Z25	X26	Y26	Z26	X27	Y27	Z27	X28	Y28	Z28	X29	Y29	Z29	X30	Y30	Z30	X31	Y31	Z31	X32	Y32	Z32	X33	Y33	Z33	X34	Y34	Z34	X35	Y35	Z35	X36	Y36	Z36	X37	Y37	Z37	X38	Y38	Z38	X39	Y39	Z39	X40	Y40	Z40	X41	Y41	Z41	X42	Y42	Z42	X43	Y43	Z43	X44	Y44	Z44	X45	Y45	Z45	X46	Y46	Z46	X47	Y47	Z47	X48	Y48	Z48	X49	Y49	Z49	X50	Y50	Z50	X51	Y51	Z51	

140	1.39000000	-111.50656	473.20822	-401.69765	-76.60536	393.71520	-420.54024	-280.76506	125.84924	-429.51919	-367.13734	112.19440	-465.44492	-203.33424	51.98587	-400.70004	-149.75336	66.02340	-457.07620	-106.98205	463.22368	-769.97954	-96.50988	366.90435	-782.76033	-326.08375	158.45244	-785.38210	-410.65471	156.92814	-740.96278	-271.81634	57.85870	-824.71220	-220.43018	61.77524	-773.29747	-143.64875	300.43810	-401.93988	-139.71740	438.49293	-386.34481	-203.41483	343.54516	-385.61150	-163.64638	424.92576	-787.55727	-234.48306	326.61405	-802.10686	-303.24819	729.75548	-395.75605	-224.48037	651.69773	-392.88876	-246.55647	594.09018	-369.26176	-381.75094	648.18789	-386.79969	-294.15758	569.39930	-384.49090	-285.19895	663.71764	-800.89157	-174.56228	581.77985	-786.22048	-353.19426	578.03548	-756.51690	-236.87933	496.74007	-759.41734	-308.86311	765.53752	-461.55375	-455.26039	884.04946	-551.43232	-304.76728	743.70794	-709.94067	-452.95390	883.44184	-650.42029	-121.05053	1141.13114	-633.61648	-65.21381	1061.17790	-446.98238	-47.84523	1027.85607	-784.46162	-27.57690	1026.55374	-590.30452	-23.02189	1020.77643	-630.59381	-140.34422	963.81133	-369.30356	-298.96453	804.90959	-387.56303	-268.06705	816.00603	-316.72968	-142.43394	763.37368	-350.65895	-37.49036	712.94489	-395.11339	-41.66074	679.29937	-384.87101	-77.28543	919.40483	-838.53737	-191.26470	712.33787	-790.34228	-147.91505	723.00308	-861.62102	-58.19891	687.56583	-797.94604	44.26987	617.00649	-717.85184	42.36967	590.89488	-742.00433	-413.67615	730.25926	-485.46980	-408.27981	717.38275	-691.46801	-407.01017	723.99452	-498.27309	-403.17627	722.98429	-662.81474	
141	1.40000000	-111.58320	473.34023	-401.59473	-76.78924	393.80434	-420.13306	-281.01908	125.66151	-429.00434	-367.39851	112.14298	-464.15474	-203.31665	51.62257	-400.35493	-149.89313	66.00219	-456.70492	-107.44333	463.01127	-769.98072	-97.43583	366.10525	-782.47122	-327.07115	157.87085	-785.42877	-411.73274	155.59466	-740.71444	-272.19702	57.72096	-824.78733	-220.94785	61.88518	-773.33701	-143.78045	300.40575	-401.50858	-139.40085	438.60538	-385.92791	-203.83189	343.88316	-384.97548	-164.58431	424.07086	-787.42532	-235.32324	325.84833	-802.22337	-301.44712	731.35304	-395.28854	-223.31447	652.55046	-392.43908	-245.91952	595.23143	-369.06877	-380.58404	650.53315	-386.84416	-293.54361	571.06458	-384.51920	-283.68485	665.67268	-800.48795	-173.91522	582.52610	-785.93308	-352.55453	580.48595	-756.59851	-237.03923	498.15853	-759.67186	-306.56846	768.36268	-461.02262	-452.65117	886.98377	-550.96561	-302.24453	746.63582	-709.75962	-450.32980	886.53925	-650.04125	-119.68047	1145.06437	-633.31325	-63.46593	1064.75122	-446.68618	-46.61870	1031.96037	-784.42918	-25.96256	1030.56703	-590.24253	-21.59447	1025.01110	-630.58045	-139.46398	967.95633	-368.75539	-301.29331	812.31327	-386.04520	-270.55702	823.51427	-315.10277	-146.13183	767.77623	-347.55751	-42.00607	714.40331	-390.87337	-46.88092	680.97508	-380.35075	-77.85373	923.77219	-839.09793	-194.55487	718.86722	-791.26452	-151.98502	728.71463	-862.88971	-62.74819	691.72417	-800.15807	39.33865	619.06573	-720.96999	36.85127	593.09617	-745.20494	-411.33706	733.14820	-485.18122	-405.81710	720.44724	-691.18701	-404.69273	726.71692	-497.86915	-400.83204	725.97748	-662.63853	
142	1.41000000	-111.62417	473.13396	-401.55272	-76.79725	393.66650	-419.58803	-281.47352	125.22784	-428.43668	-367.82610	111.52108	-463.19094	-203.45661	51.16480	-400.02121	-150.20153	65.91406	-456.37107	-108.11705	462.42129	-770.12737	-98.57757	365.02451	-782.44640	-328.36939	156.93524	-785.07763	-413.10494	153.82791	-740.22746	-272.71175	57.53266	-824.95417	-221.53514	61.96107	-773.28277	-144.01679	300.13728	-401.22576	-139.29760	437.50131	-386.30652	-204.06648	343.69857	-384.64165	-165.73186	422.95154	-787.20093	-236.47604	324.94705	-802.43635	-299.29944	732.39275	-395.27202	-221.90609	653.20525	-392.19980	-245.14623	595.99967	-368.95248	-379.26995	652.56772	-386.82491	-292.88872	572.38088	-384.51036	-282.26537	667.27044	-799.93479	-173.40302	582.93617	-785.71963	-352.00617	582.60243	-756.67409	-237.32190	498.99428	-759.51031	-304.14124	771.04985	-460.45637	-449.98483	889.58095	-550.60719	-299.53722	749.35943	-709.39381	-447.66424	889.27200	-649.56189	-118.59768	1149.05701	-632.88038	-61.98892	1068.37845	-446.47805	-45.70333	1036.19472	-784.47484	-24.58631	1034.60249	-590.27081	-20.28124	1029.20613	-630.45821	-138.51644	971.84417	-368.36456	-303.07545	819.26454	-384.81673	-272.64716	830.82999	-313.40292	-149.30932	772.28472	-344.46551	-45.84111	716.25562	-386.47639	-51.39839	683.01448	-375.66872	-78.26861	928.27522	-839.53185	-197.30731	724.85799	-792.31640	-155.42632	734.92429	-864.90754	-66.65884	696.12516	-802.33993	35.03517	621.27177	-723.88119	31.95774	595.48147	-748.32479	-408.82439	735.78940	-484.80720	-403.12419	723.17836	-690.81378	-402.14490	729.22995	-497.38097	-398.27778	728.71531	-662.28401	
143	1.42000000	-111.60355	472.59139	-401.44956	-76.79888	392.97690	-419.22487	-282.14887	124.51421	-427.94190	-368.41761	110.14419	-462.85667	-203.78498	50.65016	-399.70118	-150.66151	65.76654	-456.12258	-108.97737	461.35139	-770.23407	-99.76427	363.51080	-782.61540	-329.98071	155.71673	-784.27719	-414.70963	151.64237	-739.56218	-273.37130	57.08482	-824.90083	-222.20899	61.86570	-772.96216	-144.43894	299.57862	-400.95934	-139.70092	436.06447	-386.92352	-204.21435	343.13053	-384.23896	-166.86826	421.53699	-786.92556	-237.83961	323.87431	-802.43161	-297.14783	733.25665	-395.25905	-220.41003	653.60959	-392.03908	-244.21914	596.45233	-368.83221	-377.82658	654.16406	-386.87217	-292.17782	573.32326	-384.43915	-280.89021	668.34945	-799.17378	-172.90919	582.91473	-785.60610	-351.50063	584.14242	-756.43093	-237.72396	499.25614	-759.03987	-301.55518	773.63940	-459.94659	-447.28685	891.87510	-550.34762	-296.79703	751.77691	-709.02498	-445.01931	891.63363	-649.07941	-117.78893	1153.01901	-632.39547	-60.93010	1071.90638	-446.42482	-45.15400	1040.52983	-784.53970	-23.44569	1038.64803	-590.29531	-18.26575	1032.93413	-629.33800	-137.47069	975.69234	-367.93251	-304.12001	825.79311	-383.54955	-274.13565	837.78426	-311.72737	-151.75488	776.74175	-341.45728	-48.77409	718.45102	-382.01341	-55.09509	685.35323	-371.07586	-78.51684	932.96921	-840.05356	-201.33960	730.20459	-794.93120	-157.98481	741.20923	-867.19926	-69.77227	700.74295	-804.44962	31.55232	623.49272	-726.75736	27.89001	598.03901	-751.33385	-406.13300	738.22713	-484.37631	-400.36111	725.53642	-690.37609	-399.41764	731.52393	-496.86093	-395.62809	731.12037	-661.87047	
144	1.43000000	-111.51394	471.49720	-401.34744	-77.13101	391.33570	-419.49786	-283.11239	123.36802	-427.91925	-369.24559	108.06038	-462.93593	-204.22785	50.09557	-399.44448	-151.21042	65.60611	-456.02015	-109.84102	459.71035	-770.24931	-100.87974	361.42309	-782.65620	-331.82174	154.44030	-783.43311	-416.50783	149.03845	-738.72447	-274.11581	56.43022	-824.50015	-222.97626	61.65374	-772.42413	-145.00731	298.25089	-400.90783	-140.09300	435.44806	-386.77566	-204.61887	341.96849	-383.92971	-167.84768	419.69101	-786.60061	-239.25894	322.31944	-801.90958	-294.91252	734.03902	-395.03568	-218.91949	653.53145	-391.82317	-243.14564	596.54805	-368.71975	-376.18857	655.50129	-386.87384	-291.35670	573.87621	-384.42221	-279.57132	668.72929	-798.34306	-172.42007	582.30925	-785.66455	-350.99547	585.12675	-755.73297	-238.15601	499.11083	-758.90882	-298.78891	775.98317	-459.58058	-444.61232	893.88433	-550.01774	-294.06801	753.58377	-708.80715	-442.38394	893.59003	-648.69993	-117.39851	1156.80653	-631.97433	-60.43889	1075.36713	-446.58292	-45.04564	1044.85683	-784.45643	-22.56051	1042.77356	-590.33503	-15.82446	1036.54452	-627.72531	-136.37995	979.68473	-367.32219	-304.66768	831.87471	-381.88246	-274.93912	844.15723	-310.06804	-153.31347	781.11498	-338.42628	-50.61415	721.05321	-377.53074	-57.66513	687.93589	-366.84584	-78.64998	937.69727	-840.55751	-206.31497	735.39417	-798.86814	-159.82500	746.78207	-868.98820	-72.02582	705.36706	-806.41992	29.05997	625.90652	-729.75909	24.92376	600.83415	-754.46168	-403.29517	740.38969	-483.90081	-397.67982	727.41089	-689.88667	-396.63189	733.46689	-496.44883	-392.90279	732.97439	-661.58802	
145	1.44000000	-111.53104	469.60585	-401.42480	-77.79153	388.88226	-420.14118	-284.38747	121.75376	-428.46074	-370.37142	105.35944	-463.34773	-204.74784	49.49064	-399.48142	-151.86748	65.48863	-456.08611	-110.61161	457.52826	-770.30283	-101.98787	358.97238	-782.77510	-333.78733	153.03360	-782.77477	-418.48697	146.00914	-737.69421	-274.93386	55.78912	-824.06100	-223.85510	61.49882	-771.96200	-145.59680	295.88306	-401.24950	-140.21163	434.56631	-386.28972	-205.36793	340.03269	-384.17167	-168.76367	417.39932	-786.33822	-240.72907	320.12960	-801.08045	-292.26693	734.40139	-394.96099	-217.18182	652.85358	-391.70047	-241.97072	596.18925	-368.68126	-374.37937	656.64633	-386.68396	-290.42359	573.98988	-384.45019	-278.28666	668.60749	-797.78565	-172.00185	581.09013	-785.79654	-350.43755	585.86965	-754.79097	-238.63850	498.64530	-759.15944	-296.01524	777.75857	-459.33242	-442.01949	895.57358	-549.57247	-291.37839	754.50767	-708.58194	-439.76736	895.14016	-648.43325	-117.66889	1160.38663	-631.59529	-60.45322	1078.99774	-446.81758	-45.37414	1049.21521	-784.34417	-21.98122	1047.14109	-590.47049	-14.33297	1040.86530	-627.01739	-135.43337	983.81179	-366.65591	-304.76413	837.12691	-380.01934	-275.09751	849.81576	-308.35037	-153.95906	785.45847	-335.19631	-51.26081	724.25667	-373.01150	-58.80676	691.02055	-362.73452	-78.66625	942.26789	-840.80244	-209.34099	740.55220	-802.18084	-160.99601	751.69680	-870.54909	-73.28977	709.78854	-808.36750	27.63153	628.78670	-732.70958	23.23418	603.95011	-757.63375	-400.56035	742.13679	-483.36834	-395.20897	728.70122	-689.33185	-393.97176	734.90994	-496.15689	-390.20824	734.18598	-661.35983	
